<?xml version="1.0" standalone="no"?>
<!DOCTYPE svg PUBLIC "-//W3C//DTD SVG 20010904//EN"
 "http://www.w3.org/TR/2001/REC-SVG-20010904/DTD/svg10.dtd">
<svg version="1.0" xmlns="http://www.w3.org/2000/svg"
 width="2000.000000pt" height="2000.000000pt" viewBox="0 0 2000.000000 2000.000000"
 preserveAspectRatio="xMidYMid meet">
<metadata>
Created by potrace 1.14, written by Peter Selinger 2001-2017
</metadata>
<g transform="translate(0.000000,2000.000000) scale(0.100000,-0.100000)"
fill="#000000" stroke="none">
<path d="M9634 18278 c-21 -4 -76 -7 -121 -7 -64 -1 -83 -4 -83 -15 0 -19 -28
-24 -136 -26 -98 -1 -153 -12 -165 -32 -8 -12 -34 -14 -247 -18 -7 0 -26 -15
-43 -32 -16 -18 -29 -29 -29 -25 0 4 -6 2 -13 -4 -7 -7 -14 -28 -15 -47 -3
-33 -21 -62 -40 -62 -9 0 -26 -55 -23 -73 2 -13 -26 -37 -34 -29 -4 4 -5 2 -3
-4 2 -6 -13 -31 -32 -55 -19 -24 -36 -52 -37 -62 -3 -20 -28 -49 -35 -42 -3 3
-5 -1 -6 -7 -6 -51 -17 -81 -33 -91 -11 -7 -19 -17 -19 -24 0 -7 -4 -13 -10
-13 -5 0 -9 -3 -8 -7 4 -14 -21 -73 -30 -73 -6 0 -13 -12 -17 -27 -3 -15 -17
-37 -30 -49 -13 -12 -26 -34 -28 -48 -1 -14 -10 -33 -20 -43 -49 -52 -77 -93
-77 -112 0 -11 -5 -21 -10 -21 -6 0 -9 -3 -9 -7 3 -20 -3 -31 -24 -40 -19 -9
-23 -17 -19 -41 3 -23 -2 -35 -23 -55 -16 -14 -28 -37 -30 -54 -1 -19 -15 -42
-34 -60 -17 -17 -31 -34 -31 -39 0 -5 -9 -17 -20 -27 -11 -9 -20 -26 -20 -37
0 -10 -13 -35 -30 -53 -17 -20 -30 -47 -32 -66 -2 -23 -10 -37 -29 -48 -16
-10 -25 -22 -22 -32 7 -28 -15 -74 -33 -67 -8 3 -13 2 -9 -3 3 -5 0 -15 -7
-23 -7 -7 -14 -22 -16 -33 -2 -11 -9 -24 -16 -30 -6 -5 -20 -27 -29 -48 -10
-20 -22 -35 -27 -32 -5 3 -14 -11 -21 -30 -7 -19 -17 -35 -22 -35 -4 0 -5 -5
-2 -10 3 -6 0 -13 -8 -16 -9 -3 -18 -17 -22 -32 -4 -15 -17 -41 -30 -58 -13
-17 -27 -43 -31 -58 -3 -14 -10 -26 -16 -26 -5 0 -7 -4 -3 -9 3 -5 -5 -17 -17
-25 -12 -9 -19 -16 -16 -16 13 0 -14 -61 -49 -113 -20 -29 -40 -51 -45 -49 -5
1 -7 -2 -4 -7 4 -5 0 -16 -8 -24 -8 -8 -13 -17 -10 -20 3 -2 -8 -15 -23 -28
-18 -16 -27 -32 -25 -46 2 -13 -6 -31 -20 -45 -13 -12 -28 -32 -34 -43 -14
-27 1 -80 28 -100 20 -13 463 -15 4344 -15 l4322 0 29 30 c15 17 34 30 40 30
26 0 12 31 -22 47 -19 9 -35 20 -35 25 0 5 -35 42 -77 83 -42 41 -73 75 -68
75 5 0 -5 11 -23 23 -17 13 -30 26 -27 29 5 5 -45 32 -78 42 -9 3 -20 13 -24
23 -9 24 -75 83 -85 77 -4 -3 -8 -1 -8 4 0 14 -87 111 -94 104 -4 -3 -22 10
-40 30 -19 20 -36 35 -39 32 -2 -2 -41 32 -87 76 -45 44 -88 80 -95 80 -7 0
-24 13 -38 29 -14 17 -27 27 -30 24 -4 -3 -13 2 -22 11 -9 9 -13 16 -8 16 21
1 -45 29 -69 30 -16 0 -28 4 -28 8 0 8 -77 92 -85 92 -11 0 -45 36 -45 48 0 7
-4 11 -9 7 -5 -3 -17 2 -25 11 -9 8 -16 12 -16 7 0 -4 -8 2 -18 14 -9 12 -27
24 -40 26 -13 2 -34 15 -48 30 -14 15 -31 28 -39 28 -8 1 -19 2 -24 3 -5 0
-18 11 -29 24 -11 12 -24 22 -31 22 -6 0 -11 5 -11 11 0 5 -4 7 -10 4 -6 -3
-10 -1 -10 5 0 6 -16 20 -35 31 -20 12 -32 26 -28 32 3 7 3 9 -2 5 -4 -4 -14
-1 -22 7 -8 8 -23 15 -33 15 -10 0 -32 14 -50 30 -18 17 -40 30 -49 30 -9 0
-32 12 -50 27 -22 19 -42 27 -61 25 -22 -3 -40 8 -90 57 -34 34 -66 59 -70 56
-4 -2 -20 7 -36 20 -16 14 -37 25 -46 25 -9 0 -20 5 -23 10 -4 6 -10 8 -15 5
-5 -3 -17 6 -29 20 -11 15 -22 26 -25 26 -26 -3 -40 3 -68 27 -22 18 -43 26
-63 25 -40 -3 -77 6 -71 16 3 4 -6 14 -19 21 -13 7 -22 18 -18 23 3 6 1 7 -6
3 -6 -4 -25 4 -42 18 -17 14 -40 26 -51 26 -11 0 -32 12 -48 26 -17 16 -42 28
-64 30 -20 2 -44 10 -52 19 -26 25 -57 38 -91 37 -21 -1 -41 7 -62 25 -24 21
-39 26 -79 26 -40 -1 -54 3 -70 22 -11 13 -19 25 -17 27 2 2 -7 5 -21 6 -14 1
-46 14 -72 29 -26 15 -56 26 -68 25 -12 -2 -34 8 -50 21 -28 24 -69 37 -123
41 -15 1 -37 12 -49 24 -15 15 -35 22 -64 23 -72 2 -108 14 -108 34 0 13 -44
20 -165 28 -26 1 -39 6 -37 15 1 6 -1 11 -5 10 -5 0 -24 6 -42 14 -19 9 -40
14 -47 11 -6 -2 -34 7 -60 21 -27 13 -67 26 -89 29 -48 6 -74 15 -98 35 -12
11 -47 17 -109 20 -75 3 -98 8 -127 28 -33 21 -49 24 -173 27 -113 3 -139 7
-154 21 -31 31 -65 37 -224 37 -141 -1 -159 1 -174 18 -18 20 -87 29 -231 32
-80 2 -95 6 -95 24 0 9 -31 14 -107 19 -151 9 -1092 13 -1139 4z"/>
<path d="M8140 18030 c-8 -5 -18 -6 -22 -4 -4 3 -8 1 -8 -5 0 -5 -19 -9 -43
-9 -24 0 -61 -8 -83 -18 -21 -9 -42 -18 -46 -19 -5 -2 -11 -4 -15 -5 -14 -5
-28 -8 -50 -9 -13 0 -32 -10 -43 -21 -11 -11 -20 -17 -20 -12 0 4 -4 2 -8 -4
-4 -6 -46 -14 -94 -17 -73 -5 -90 -10 -110 -30 -19 -19 -36 -24 -83 -26 -47
-1 -63 -6 -83 -26 -18 -18 -36 -25 -64 -25 -40 0 -108 -25 -108 -40 0 -5 -24
-14 -54 -20 -30 -6 -60 -17 -66 -25 -6 -8 -24 -16 -39 -20 -16 -3 -39 -16 -52
-28 -13 -12 -27 -21 -31 -20 -5 2 -8 -1 -8 -5 0 -5 -24 -9 -52 -11 -43 -2 -57
-7 -76 -29 -13 -15 -26 -26 -28 -24 -18 11 -87 -1 -104 -18 -11 -11 -20 -17
-20 -12 0 4 -4 1 -8 -6 -5 -7 -26 -15 -47 -17 -22 -3 -51 -16 -65 -29 -14 -13
-33 -24 -42 -25 -39 -3 -47 -5 -43 -11 5 -9 -26 -39 -39 -38 -5 1 -24 -11 -43
-27 -24 -18 -49 -28 -79 -30 -30 -2 -50 -10 -66 -28 -13 -13 -37 -27 -54 -30
-18 -3 -45 -18 -60 -32 -17 -15 -37 -25 -50 -23 -14 2 -34 -8 -53 -26 -17 -17
-31 -26 -31 -22 0 7 -22 -9 -48 -36 -9 -10 -24 -18 -32 -18 -9 0 -27 -11 -39
-24 -13 -13 -35 -27 -49 -30 -48 -11 -82 -28 -76 -37 5 -8 -9 -13 -28 -10 -5
0 -8 -3 -8 -8 0 -5 -9 -13 -21 -16 -11 -4 -18 -9 -15 -13 8 -7 -32 -34 -42
-28 -10 6 -64 -28 -57 -36 3 -3 -8 -11 -25 -18 -17 -7 -35 -21 -41 -32 -5 -10
-13 -17 -17 -14 -4 3 -16 -8 -27 -24 -12 -18 -31 -31 -53 -35 -19 -3 -44 -17
-56 -31 -11 -14 -33 -26 -48 -28 -14 -1 -43 -17 -63 -34 -19 -18 -40 -32 -46
-32 -6 0 -8 -4 -5 -9 7 -11 -18 -33 -27 -24 -4 3 -7 1 -7 -5 0 -7 -5 -12 -11
-12 -12 0 -99 -68 -111 -86 -4 -7 -19 -15 -33 -18 -15 -4 -30 -17 -35 -32 -6
-14 -14 -23 -18 -20 -5 3 -22 -7 -39 -23 -17 -15 -44 -33 -62 -40 -17 -8 -28
-17 -25 -22 3 -5 0 -9 -6 -9 -7 0 -27 -16 -46 -35 -18 -19 -36 -35 -39 -35 -3
0 -31 -25 -63 -55 -90 -86 -106 -100 -119 -105 -19 -8 -124 -102 -220 -197
-46 -45 -83 -80 -83 -78 0 6 -79 -76 -109 -114 -14 -16 -29 -28 -33 -25 -5 3
-7 2 -6 -3 3 -9 -108 -123 -120 -123 -8 -1 -67 -84 -98 -138 -11 -20 -26 -36
-32 -35 -7 2 -12 -1 -12 -6 0 -6 -38 -49 -85 -97 -47 -48 -85 -90 -85 -94 0
-4 -11 -13 -25 -20 -14 -7 -25 -19 -25 -26 0 -7 -11 -26 -25 -42 -14 -17 -25
-37 -25 -46 0 -9 -5 -16 -11 -16 -5 0 -7 -4 -4 -10 3 -5 2 -10 -3 -10 -12 0
-53 -36 -47 -42 3 -3 -21 -32 -52 -65 -82 -86 -103 -113 -103 -130 0 -15 -36
-53 -49 -53 -4 0 -8 -10 -9 -22 -5 -51 -10 -62 -28 -69 -10 -4 -16 -8 -11 -8
7 -1 -22 -37 -85 -105 -21 -22 -41 -49 -44 -59 -3 -11 -16 -30 -28 -44 -11
-13 -21 -28 -21 -31 0 -4 -4 -13 -8 -19 -5 -7 -5 -13 -1 -13 4 0 -2 -10 -13
-22 -11 -13 -26 -38 -34 -55 -8 -18 -19 -33 -25 -33 -12 0 -34 -43 -34 -66 0
-14 -38 -68 -87 -122 -13 -13 -20 -28 -17 -33 2 -5 -3 -16 -13 -26 -28 -29
-54 -73 -49 -82 3 -5 -6 -21 -19 -37 -14 -16 -25 -36 -26 -44 -1 -8 -2 -26 -2
-40 -1 -16 -11 -29 -25 -35 -13 -5 -26 -21 -29 -35 -3 -13 -15 -33 -25 -44
-10 -11 -18 -22 -19 -25 -4 -35 -12 -49 -33 -68 -16 -14 -26 -32 -26 -49 0
-17 -11 -39 -26 -55 -18 -19 -30 -45 -35 -79 -5 -33 -16 -59 -30 -71 -15 -13
-21 -29 -21 -58 1 -29 -6 -46 -23 -63 -13 -13 -26 -35 -28 -49 -9 -45 -12 -52
-34 -75 -19 -19 -28 -46 -25 -75 1 -4 -10 -17 -23 -29 -15 -14 -25 -35 -25
-51 0 -15 -4 -30 -8 -33 -4 -2 -5 -33 -2 -68 4 -50 11 -71 35 -100 17 -21 30
-42 30 -47 0 -5 10 -21 23 -36 12 -14 20 -30 17 -35 -3 -4 -2 -10 2 -12 23
-10 57 -63 59 -90 2 -21 11 -38 28 -51 18 -13 26 -28 26 -48 0 -20 10 -40 30
-59 17 -17 30 -40 30 -54 0 -14 9 -31 20 -39 11 -8 17 -17 13 -20 -3 -4 -1 -7
5 -7 6 0 14 -9 17 -20 3 -11 12 -20 19 -20 15 0 39 -47 31 -60 -3 -5 8 -24 24
-43 20 -22 31 -46 33 -70 1 -20 4 -34 7 -32 10 11 41 -30 47 -62 3 -18 15 -39
25 -47 10 -7 16 -16 12 -19 -3 -4 -1 -7 6 -7 7 0 9 -4 6 -10 -3 -5 -1 -10 4
-10 6 0 11 -7 11 -15 0 -9 7 -18 15 -21 8 -4 12 -10 9 -15 -3 -5 -1 -9 4 -9 5
0 12 -8 16 -17 3 -10 17 -34 31 -53 14 -19 31 -43 37 -52 6 -9 15 -15 19 -13
10 7 17 -18 15 -53 -1 -18 0 -32 3 -32 3 0 17 -10 31 -21 14 -11 18 -17 10
-13 -12 6 -13 5 -4 -7 6 -8 16 -33 24 -57 7 -23 15 -40 18 -37 9 8 31 -29 32
-52 0 -12 11 -30 25 -41 13 -10 25 -25 27 -33 2 -8 11 -20 21 -27 9 -7 15 -18
12 -23 -4 -5 -2 -9 3 -9 5 0 12 -12 15 -27 3 -16 13 -37 22 -48 9 -11 13 -13
9 -5 -7 13 -5 13 9 1 10 -8 17 -28 17 -48 0 -26 7 -40 30 -60 22 -18 30 -33
30 -58 0 -25 5 -35 20 -40 11 -4 24 -22 31 -44 11 -37 28 -62 81 -124 16 -17
28 -41 28 -53 0 -12 7 -27 16 -35 17 -14 45 -64 43 -76 -3 -18 2 -29 26 -57
14 -16 25 -37 25 -46 0 -9 9 -25 20 -35 11 -10 17 -22 14 -26 -3 -5 -1 -9 5
-9 5 0 13 -10 17 -22 4 -13 15 -29 26 -36 10 -7 16 -17 13 -22 -3 -4 2 -11 11
-14 21 -8 49 -8 41 1 -4 3 8 21 26 38 17 18 37 39 42 47 6 8 18 26 27 39 10
14 19 34 21 46 4 27 26 55 38 47 5 -3 8 -2 7 3 -1 4 3 18 10 31 7 12 9 22 5
22 -4 1 2 9 15 20 20 17 47 102 35 114 -3 2 4 9 15 15 11 6 23 7 27 3 3 -4 6
-2 4 3 -3 15 13 48 32 65 9 8 21 34 28 58 7 25 18 42 26 42 8 0 15 7 15 15 0
8 5 15 11 15 5 0 8 4 5 9 -3 5 8 24 24 42 16 19 28 39 26 45 -3 7 9 24 25 38
16 14 30 35 30 46 1 11 3 25 4 30 1 6 3 15 4 20 0 6 7 10 15 10 16 0 26 21 26
53 0 12 14 38 30 57 16 19 30 40 30 45 0 6 14 28 30 49 17 22 30 45 30 52 0 6
9 18 20 25 17 12 27 36 29 75 1 6 12 16 26 22 18 8 25 19 25 40 0 15 6 34 13
41 10 11 9 13 -3 7 -8 -4 -6 -1 5 8 41 32 45 38 45 70 0 19 7 39 15 46 8 7 15
9 16 4 0 -5 10 10 22 32 46 87 61 110 81 129 12 11 22 22 23 25 1 3 5 19 8 35
4 17 16 37 27 45 10 9 21 33 25 55 3 24 16 50 32 65 14 14 27 31 29 38 1 7 11
23 22 35 11 11 20 29 20 40 0 10 12 31 28 47 15 15 28 34 30 41 2 8 11 21 21
30 16 13 34 49 36 71 0 4 10 15 23 23 14 11 22 26 22 46 0 16 5 29 11 29 5 0
8 4 5 9 -3 4 6 19 19 31 14 13 25 34 25 46 0 13 14 39 30 57 17 19 30 40 30
46 0 7 9 21 20 33 11 12 20 29 20 38 0 9 14 29 30 45 18 17 30 39 30 54 0 17
11 34 30 50 22 17 30 32 30 54 0 22 8 38 26 52 20 16 27 31 27 59 1 30 6 41
24 49 13 6 23 16 23 24 0 7 5 13 11 13 5 0 8 4 4 9 -3 5 6 18 20 29 14 11 25
27 25 35 0 9 10 28 23 44 25 29 39 57 42 84 1 8 11 25 23 37 12 12 24 33 28
46 3 14 12 27 19 30 7 2 18 22 25 43 17 52 39 85 52 77 7 -4 8 -3 4 4 -11 18
18 75 61 117 24 24 43 54 46 73 4 18 18 43 32 55 16 14 26 34 27 55 2 24 10
38 29 49 20 12 25 22 23 44 -3 21 5 36 29 62 18 18 31 39 29 45 -2 7 2 12 9
12 7 0 9 3 6 6 -3 4 3 18 13 32 11 13 20 30 20 36 0 7 13 22 29 33 20 16 28
29 26 47 -3 24 39 81 54 72 3 -2 6 14 5 35 0 33 4 44 28 60 23 17 27 26 23 50
-3 17 -1 29 5 29 6 0 9 4 6 9 -3 4 6 13 19 19 14 7 25 18 25 27 0 8 5 15 11
15 5 0 7 5 4 10 -3 6 -2 10 2 10 5 0 17 15 27 33 10 17 30 44 43 59 14 14 25
29 24 32 -5 28 4 50 30 81 17 19 28 35 25 35 -4 0 1 14 9 30 9 17 20 28 26 25
5 -4 9 -3 8 2 -1 4 0 11 1 16 5 14 8 27 9 41 0 8 12 28 26 44 14 17 25 35 25
41 0 5 11 23 25 38 53 58 85 107 85 129 0 13 5 24 12 24 6 0 8 3 5 7 -4 3 2
12 12 19 10 7 21 28 25 46 3 18 17 42 31 53 15 12 25 33 27 54 3 32 13 47 81
119 13 13 21 32 19 46 -2 15 4 28 15 35 10 6 14 11 8 11 -5 0 1 7 13 16 13 9
22 26 22 40 0 14 11 36 26 49 17 16 27 37 30 62 2 26 12 43 32 60 22 17 28 28
25 47 -5 24 4 37 82 116 14 14 25 33 25 43 0 9 5 17 12 17 6 0 9 3 5 6 -3 4 5
21 18 39 14 17 25 36 25 42 0 5 9 18 19 27 10 10 22 33 26 52 3 19 14 43 25
54 19 19 28 40 36 87 3 15 27 49 54 76 27 27 47 53 44 58 -3 5 0 9 6 9 6 0 9
4 6 8 -3 5 6 19 19 30 21 18 31 43 23 55 -4 6 24 48 29 43 11 -11 32 29 33 59
0 20 8 36 25 49 17 13 25 28 25 51 0 20 8 39 23 53 31 29 49 52 41 52 -4 0 4
12 18 28 15 15 28 36 30 47 1 11 13 28 25 38 12 10 25 34 29 54 4 19 17 45 30
56 16 13 24 31 24 51 0 22 9 40 30 59 17 16 30 39 30 51 0 12 11 33 25 46 14
13 25 29 25 35 0 7 9 20 20 30 12 10 29 38 40 62 10 24 23 43 28 43 6 0 13 12
16 26 4 15 19 39 33 54 14 16 27 42 28 60 2 17 13 42 25 55 31 33 42 106 21
134 -11 14 -20 18 -31 11z"/>
<path d="M13791 15176 c-28 -34 -20 -146 11 -146 5 0 17 -20 28 -45 11 -25 23
-45 28 -45 5 0 15 -19 22 -42 7 -24 22 -53 33 -65 18 -20 23 -35 26 -79 1 -5
15 -25 32 -42 17 -18 28 -32 24 -32 -5 0 1 -8 13 -18 12 -10 30 -39 41 -64 11
-25 24 -47 29 -49 6 -2 12 -11 14 -18 2 -8 15 -26 31 -39 18 -16 27 -34 27
-53 0 -20 10 -39 29 -57 19 -17 29 -37 29 -55 0 -17 9 -36 24 -50 14 -13 28
-39 32 -59 4 -20 13 -39 21 -42 8 -3 21 -22 30 -43 9 -21 25 -47 36 -59 11
-12 21 -31 22 -42 0 -11 4 -19 8 -17 14 9 52 -44 46 -65 -4 -15 3 -31 24 -52
16 -17 29 -42 29 -55 0 -13 12 -36 26 -50 14 -14 28 -37 30 -52 3 -14 14 -34
25 -43 12 -10 18 -18 14 -18 -3 0 1 -7 9 -16 9 -8 14 -20 11 -25 -4 -5 0 -9 9
-9 8 0 22 -19 31 -43 9 -24 27 -56 41 -72 13 -15 24 -36 24 -46 0 -10 12 -31
26 -48 14 -17 23 -31 19 -31 -4 0 -2 -7 5 -15 7 -8 9 -15 5 -15 -5 0 3 -9 16
-21 13 -11 25 -25 25 -30 1 -5 2 -10 4 -11 1 -2 3 -11 5 -21 2 -10 12 -26 23
-35 10 -9 24 -34 31 -54 7 -21 20 -44 29 -50 9 -7 23 -25 31 -40 8 -16 16 -26
19 -23 11 11 31 -27 33 -63 2 -23 6 -39 10 -36 15 9 49 -39 43 -61 -5 -22 17
-55 37 -55 6 0 8 -4 4 -9 -3 -5 -1 -12 5 -16 5 -3 10 -17 10 -31 0 -13 11 -34
25 -46 13 -11 29 -36 36 -55 6 -18 14 -33 19 -33 5 0 12 -9 15 -21 4 -11 20
-36 37 -55 20 -22 28 -41 25 -54 -4 -14 4 -27 24 -43 19 -14 30 -35 34 -60 4
-20 17 -48 31 -62 13 -13 24 -34 24 -47 0 -13 15 -39 33 -59 59 -68 67 -80 70
-102 1 -12 14 -35 30 -50 15 -16 28 -35 28 -43 1 -8 2 -18 3 -24 0 -5 10 -20
21 -32 11 -13 19 -26 17 -30 -1 -5 3 -8 8 -8 6 0 10 -9 10 -21 0 -12 11 -35
25 -51 14 -16 23 -34 19 -39 -3 -5 0 -9 5 -9 6 0 11 -6 11 -13 0 -8 9 -22 20
-32 11 -10 20 -24 20 -32 0 -8 13 -28 30 -46 28 -30 31 -36 29 -53 0 -4 10
-12 23 -18 16 -8 23 -20 23 -40 -1 -18 10 -40 28 -60 17 -17 31 -42 32 -56 4
-36 15 -60 29 -60 14 0 36 -41 36 -67 0 -9 11 -26 25 -39 14 -13 25 -34 25
-47 0 -14 6 -27 14 -30 8 -3 24 -26 37 -51 12 -25 26 -43 30 -40 11 6 19 -10
24 -48 3 -20 14 -40 30 -51 16 -12 25 -28 25 -47 0 -37 9 -60 24 -60 6 0 17
-9 24 -21 11 -17 11 -20 0 -13 -14 9 -1 -12 35 -53 11 -12 16 -26 13 -32 -4
-5 2 -14 11 -20 10 -6 14 -11 9 -11 -4 0 2 -8 13 -18 12 -9 23 -25 25 -34 1
-10 12 -28 23 -40 12 -13 23 -30 25 -38 2 -8 7 -18 11 -21 4 -3 9 -15 10 -27
0 -11 4 -19 8 -16 15 9 32 -31 45 -105 2 -8 10 -19 19 -23 9 -5 23 -27 31 -49
9 -21 20 -39 24 -39 4 0 14 -15 21 -32 7 -18 24 -42 36 -54 12 -12 20 -24 16
-27 -3 -4 -1 -7 5 -7 6 0 14 -9 17 -20 4 -11 11 -18 16 -15 9 6 30 -38 28 -59
-3 -28 3 -42 24 -51 16 -7 23 -20 25 -45 2 -24 13 -44 33 -62 17 -15 29 -33
28 -40 -4 -34 3 -56 19 -60 9 -3 24 -18 32 -34 8 -16 23 -38 33 -48 9 -11 17
-24 17 -30 0 -5 12 -22 26 -37 15 -16 28 -43 31 -66 3 -25 16 -48 35 -66 20
-19 28 -35 25 -48 -4 -13 5 -30 24 -50 16 -16 29 -40 29 -53 0 -13 9 -31 19
-40 11 -10 25 -31 31 -47 7 -16 18 -29 25 -29 7 0 18 -14 25 -31 8 -17 21 -39
30 -48 8 -9 22 -34 29 -56 8 -22 22 -45 31 -52 10 -7 20 -28 23 -47 3 -20 17
-51 32 -70 14 -19 27 -43 28 -54 0 -12 6 -20 12 -19 5 1 21 -20 34 -48 13 -27
27 -51 32 -53 5 -2 16 -19 25 -38 9 -18 19 -32 23 -30 12 7 26 -19 30 -54 1
-19 8 -38 14 -42 21 -12 53 -40 37 -32 -13 7 -13 5 -1 -9 7 -9 10 -24 7 -33
-4 -10 5 -25 24 -42 17 -15 30 -36 30 -50 0 -26 33 -75 44 -65 3 3 6 1 6 -5 0
-7 14 -26 30 -44 17 -17 30 -41 30 -53 0 -12 11 -34 25 -49 15 -16 25 -39 25
-57 0 -20 10 -39 30 -59 17 -16 30 -40 30 -53 0 -13 9 -32 19 -41 11 -10 25
-32 32 -49 15 -37 53 -92 86 -125 13 -13 21 -27 18 -33 -4 -5 -2 -9 2 -9 5 0
21 -12 36 -26 20 -18 26 -31 22 -46 -8 -24 11 -74 32 -82 8 -3 12 -10 8 -15
-3 -5 -1 -12 5 -16 5 -3 10 -14 10 -24 0 -10 11 -28 25 -41 13 -12 24 -25 23
-29 -3 -17 16 -61 27 -61 7 0 23 -11 36 -24 25 -26 50 -16 41 17 -3 11 8 33
26 56 26 33 31 48 34 108 3 49 10 78 25 99 11 16 22 50 25 75 3 25 15 59 27
76 18 24 23 48 28 129 4 83 9 105 30 136 23 34 25 46 25 165 1 70 5 134 11
141 5 6 6 12 2 12 -5 0 -1 8 9 19 30 33 37 84 37 268 0 139 3 185 13 190 7 5
18 17 24 29 14 26 14 1593 1 1642 -5 17 -16 32 -23 32 -10 0 -13 39 -14 186
-1 205 -4 233 -35 283 -18 29 -21 54 -24 155 -3 137 -6 157 -32 195 -14 19
-20 51 -24 118 -4 60 -12 103 -23 125 -10 18 -18 36 -19 40 0 3 -3 10 -7 14
-5 4 -8 24 -8 44 0 23 -8 48 -22 66 -17 21 -23 43 -24 93 -2 54 -7 71 -30 100
-24 30 -27 43 -28 110 -1 59 -6 82 -21 103 -11 15 -23 28 -27 28 -5 0 -8 27
-8 60 0 51 -4 62 -27 84 -22 20 -27 34 -28 78 -3 67 -5 76 -32 104 -13 13 -23
31 -23 40 0 9 -10 32 -22 52 -12 19 -25 57 -29 84 -5 29 -18 61 -34 80 -19 22
-25 38 -21 59 3 21 -4 38 -24 64 -20 26 -27 45 -26 71 1 27 -5 44 -25 65 -14
16 -24 31 -21 34 3 3 0 5 -7 5 -8 0 -11 10 -8 30 3 19 0 34 -11 42 -8 7 -26
37 -39 66 -13 29 -30 55 -38 58 -8 4 -12 10 -9 15 3 5 0 9 -5 9 -6 0 -10 3
-10 8 4 22 -4 40 -26 67 -14 16 -25 38 -24 50 2 37 -1 45 -26 67 -14 12 -25
31 -25 42 0 33 -11 66 -22 66 -20 0 -38 30 -38 64 0 25 -5 36 -19 41 -10 3
-25 20 -32 38 -7 18 -23 47 -36 66 -12 18 -21 37 -18 40 2 4 -9 15 -26 25 -16
10 -29 23 -28 29 5 39 -3 66 -20 72 -20 6 -30 23 -37 65 -3 14 -19 40 -37 58
-17 17 -28 32 -23 32 4 0 -1 14 -11 30 -9 17 -21 30 -25 30 -4 0 -8 5 -8 11 0
6 -16 30 -35 53 -19 24 -31 47 -27 51 4 5 2 5 -5 1 -14 -8 -47 37 -41 56 3 7
-10 29 -29 48 -18 19 -33 38 -33 42 0 4 -6 13 -14 20 -7 8 -23 32 -34 54 -11
21 -29 47 -41 58 -11 10 -18 23 -14 29 3 6 1 7 -5 3 -7 -4 -12 -1 -12 9 0 9
-4 13 -10 10 -5 -3 -15 5 -22 19 -6 14 -14 26 -17 26 -15 1 -42 29 -45 47 -6
30 -54 100 -92 135 -22 20 -35 33 -71 71 l-26 27 -1407 0 c-1199 0 -1409 -2
-1419 -14z"/>
<path d="M6470 13360 l0 -310 350 0 350 0 -2 -1917 -3 -1918 -347 0 -348 0 0
-307 0 -308 28 -1 c15 0 543 0 1173 -1 981 0 1150 2 1170 14 19 11 59 14 177
13 116 -1 155 2 164 12 8 10 38 13 109 12 73 -2 104 2 116 12 12 9 40 14 80
13 41 0 64 4 67 12 6 16 55 13 84 -6 15 -10 22 -25 22 -46 0 -17 6 -37 14 -44
8 -6 13 -17 10 -24 -3 -8 2 -16 11 -20 10 -3 15 -12 12 -20 -3 -7 1 -26 9 -41
8 -15 14 -35 14 -45 0 -19 29 -81 43 -91 5 -3 9 -21 9 -38 1 -18 7 -35 15 -38
8 -3 12 -18 11 -36 -1 -17 3 -32 10 -35 6 -2 12 -12 12 -22 0 -9 7 -23 16 -31
8 -7 13 -21 11 -30 -3 -10 1 -26 9 -36 7 -10 14 -30 14 -44 0 -15 7 -32 15
-39 8 -7 13 -16 10 -20 -3 -5 2 -15 10 -23 8 -9 15 -27 15 -42 0 -15 7 -33 15
-41 9 -9 13 -26 11 -40 -3 -16 0 -27 10 -31 8 -3 14 -13 14 -23 0 -10 7 -23
15 -30 10 -8 14 -24 11 -41 -2 -18 1 -30 10 -33 8 -3 14 -18 14 -34 0 -16 7
-35 15 -42 9 -7 14 -19 11 -27 -3 -8 1 -16 9 -19 9 -4 15 -19 15 -39 0 -21 6
-35 16 -39 9 -3 14 -13 11 -20 -3 -8 1 -20 9 -26 8 -7 14 -25 14 -40 0 -15 6
-33 14 -39 8 -7 13 -23 10 -37 -3 -16 1 -27 11 -30 8 -4 15 -16 15 -29 0 -13
7 -26 16 -29 11 -4 14 -13 10 -30 -4 -15 0 -28 9 -36 8 -7 15 -27 15 -45 0
-21 6 -35 16 -39 8 -3 13 -10 10 -14 -3 -5 1 -18 9 -28 8 -10 15 -29 15 -42 0
-13 7 -30 15 -39 9 -8 13 -23 10 -33 -3 -10 1 -25 10 -33 8 -9 15 -22 15 -29
0 -7 7 -21 14 -31 8 -10 12 -26 9 -36 -2 -9 3 -23 11 -30 9 -8 16 -26 16 -41
0 -15 6 -33 14 -40 8 -6 12 -18 9 -26 -3 -7 2 -17 11 -20 10 -4 16 -18 16 -36
0 -16 6 -36 14 -44 8 -7 12 -23 9 -33 -3 -12 2 -27 11 -36 9 -9 16 -22 16 -29
0 -8 6 -19 14 -25 7 -6 11 -21 9 -34 -3 -14 2 -29 11 -36 9 -8 16 -26 16 -41
0 -15 6 -33 14 -40 8 -6 12 -18 9 -26 -3 -7 2 -17 11 -20 10 -4 16 -18 16 -38
0 -18 5 -37 11 -43 6 -6 12 -23 14 -39 1 -15 8 -30 14 -32 6 -2 11 -14 11 -26
l0 -22 358 1 c329 0 357 1 357 17 0 10 6 23 13 30 6 6 12 26 12 44 0 20 6 34
16 38 9 4 14 13 10 21 -3 9 1 18 9 21 9 4 15 19 15 39 0 18 5 35 11 37 6 2 12
19 14 38 2 19 8 36 14 38 6 2 11 14 11 27 0 12 6 25 14 28 8 3 13 17 11 36 -1
18 3 32 11 35 8 3 14 18 14 34 0 16 7 35 15 42 8 7 13 23 11 36 -3 12 2 28 10
35 8 6 14 18 14 26 0 8 6 21 14 28 7 8 12 26 11 40 -2 16 2 28 11 32 8 3 14
18 14 35 0 16 7 36 15 44 8 8 12 21 9 28 -3 7 2 16 10 19 10 4 16 18 16 35 0
16 6 35 14 41 7 6 11 21 9 34 -3 14 2 29 11 36 9 8 16 22 16 31 0 10 6 20 12
22 7 3 11 18 10 35 -1 20 3 33 13 37 9 3 15 18 15 40 0 21 6 36 16 40 8 3 12
11 9 17 -4 5 1 19 10 29 10 11 15 28 12 40 -3 14 1 25 13 32 12 8 16 20 13 40
-3 19 1 30 11 34 9 3 16 17 16 29 0 13 6 25 12 27 7 3 11 18 10 35 -1 19 3 33
12 36 9 4 14 18 14 37 -1 18 4 35 11 39 7 4 13 18 14 29 1 12 7 22 15 22 9 0
12 10 10 30 -2 18 3 34 11 39 7 5 13 22 13 37 0 16 5 32 10 35 6 4 12 22 14
40 2 19 9 36 14 37 6 2 10 15 10 28 0 14 6 24 15 24 10 0 14 10 13 37 -1 20 4
39 10 41 7 2 12 16 12 32 0 15 7 33 15 40 9 7 14 19 11 27 -3 8 1 16 9 19 9 4
15 19 15 40 0 21 6 37 14 40 9 3 14 18 14 37 -1 17 4 33 10 35 7 2 12 12 12
22 0 9 6 23 14 29 8 7 13 23 10 35 -2 13 3 29 11 36 8 7 15 25 15 40 0 15 7
33 15 40 8 7 13 16 10 20 -3 5 2 15 10 23 8 9 15 30 15 47 0 18 6 33 15 36 9
4 13 15 11 30 -3 13 2 30 10 38 8 8 14 21 14 29 0 8 7 20 15 27 8 7 13 23 11
36 -3 12 2 28 10 35 8 6 14 24 14 39 0 15 7 33 15 40 9 7 13 21 10 30 -3 10 1
25 10 33 8 9 15 25 15 37 0 11 7 23 15 26 9 4 13 15 11 30 -3 13 2 30 10 38 8
8 14 28 14 44 0 17 3 32 8 34 12 5 42 68 42 90 0 10 6 26 14 34 8 8 13 25 10
39 -3 17 1 27 11 31 8 4 15 17 15 29 0 13 5 25 11 27 5 2 11 18 11 35 1 18 7
34 15 37 7 3 13 18 13 34 0 16 6 35 14 42 8 6 12 18 9 26 -3 7 2 17 11 20 10
4 16 18 16 39 0 18 5 35 12 37 6 2 11 19 10 37 0 19 5 34 14 38 8 3 14 13 14
22 0 9 7 24 14 34 8 10 12 26 9 36 -2 9 3 23 11 30 9 8 16 29 16 47 0 23 5 34
15 34 9 0 12 6 8 16 -4 10 1 22 12 30 11 8 16 21 12 34 -3 12 1 27 10 36 9 9
16 29 15 45 0 17 5 32 13 35 8 3 13 19 13 37 -1 17 4 33 10 35 7 2 12 12 12
22 0 9 7 23 16 31 9 7 14 22 11 37 -3 15 2 27 12 34 11 7 16 20 13 37 -2 17 3
32 12 40 9 8 16 22 16 32 0 11 4 19 9 19 5 0 11 10 13 23 l3 22 313 3 312 2
-2 308 -3 307 -963 0 c-530 0 -966 -4 -969 -9 -3 -4 -6 -142 -6 -305 l0 -296
284 -5 284 -5 3 -23 c2 -12 -3 -24 -11 -28 -9 -3 -13 -16 -12 -35 2 -19 -3
-33 -11 -36 -8 -3 -14 -13 -14 -23 0 -10 -7 -23 -15 -30 -8 -7 -13 -23 -11
-36 3 -12 -2 -28 -10 -35 -8 -6 -14 -24 -14 -39 0 -15 -6 -33 -14 -39 -8 -7
-13 -23 -10 -35 2 -13 -3 -29 -11 -36 -8 -7 -15 -20 -15 -30 0 -10 -7 -23 -15
-30 -9 -7 -13 -21 -9 -35 4 -15 0 -24 -10 -28 -10 -4 -16 -19 -16 -42 0 -19
-4 -35 -10 -35 -5 0 -10 -8 -10 -19 0 -10 -7 -24 -15 -31 -8 -7 -15 -26 -15
-42 0 -16 -6 -31 -14 -34 -9 -3 -12 -15 -10 -33 3 -17 -1 -33 -11 -41 -8 -7
-15 -25 -15 -40 0 -15 -6 -33 -14 -40 -8 -6 -13 -17 -10 -24 3 -8 -2 -16 -10
-19 -10 -4 -16 -19 -16 -41 0 -19 -4 -36 -10 -38 -5 -1 -12 -19 -14 -38 -2
-19 -9 -36 -15 -38 -6 -2 -11 -12 -11 -22 0 -9 -6 -23 -14 -30 -8 -6 -12 -18
-9 -26 3 -8 -2 -25 -11 -39 -9 -13 -16 -35 -16 -47 0 -13 -7 -32 -15 -42 -8
-10 -12 -22 -10 -26 3 -5 -2 -10 -10 -14 -9 -3 -15 -19 -15 -41 0 -19 -4 -35
-10 -35 -5 0 -10 -13 -10 -29 0 -16 -7 -34 -16 -42 -9 -7 -14 -22 -11 -36 2
-13 -2 -28 -9 -34 -8 -6 -14 -20 -14 -31 0 -10 -6 -21 -14 -24 -9 -3 -14 -18
-14 -37 1 -17 -4 -33 -10 -35 -7 -2 -12 -19 -12 -38 0 -22 -6 -37 -16 -41 -8
-3 -13 -11 -10 -18 2 -7 -4 -21 -14 -30 -10 -9 -16 -24 -13 -36 3 -11 -2 -28
-12 -39 -10 -11 -15 -28 -12 -39 3 -11 -1 -25 -9 -32 -8 -6 -14 -24 -14 -39 0
-15 -7 -33 -15 -40 -8 -7 -13 -16 -10 -20 3 -5 -2 -15 -10 -23 -8 -9 -15 -29
-15 -45 0 -16 -7 -35 -15 -42 -8 -7 -15 -25 -15 -41 0 -16 -4 -29 -10 -29 -5
0 -10 -8 -10 -19 0 -10 -7 -24 -16 -32 -10 -8 -13 -21 -9 -36 4 -16 1 -25 -10
-29 -9 -4 -15 -19 -15 -39 0 -18 -7 -38 -15 -45 -8 -7 -13 -16 -10 -20 3 -4
-2 -13 -10 -20 -8 -7 -15 -27 -15 -45 0 -19 -5 -35 -12 -37 -6 -2 -13 -20 -14
-38 -2 -19 -8 -36 -13 -38 -6 -2 -11 -19 -11 -37 0 -21 -6 -35 -16 -39 -9 -3
-14 -13 -11 -20 3 -8 -1 -20 -9 -26 -8 -7 -14 -26 -14 -42 0 -16 -6 -31 -14
-34 -8 -3 -12 -17 -11 -34 1 -16 -4 -35 -11 -41 -8 -6 -14 -19 -14 -29 0 -10
-6 -20 -14 -23 -8 -3 -13 -16 -12 -31 2 -14 -3 -31 -10 -37 -8 -6 -14 -24 -14
-39 0 -15 -6 -33 -14 -39 -8 -7 -13 -23 -10 -35 2 -13 -3 -29 -11 -36 -8 -7
-15 -20 -15 -30 0 -10 -6 -20 -14 -23 -10 -4 -13 -15 -10 -31 2 -14 -2 -31
-11 -40 -8 -8 -15 -28 -15 -45 0 -17 -4 -31 -10 -31 -5 0 -10 -11 -10 -25 0
-16 -6 -25 -15 -25 -8 0 -15 5 -15 10 0 17 -3 25 -17 38 -7 7 -13 27 -13 43 0
16 -4 29 -10 29 -5 0 -10 16 -10 35 0 22 -6 38 -15 41 -8 4 -15 14 -15 24 0
10 -6 23 -14 29 -7 6 -11 21 -9 34 3 14 -2 29 -11 36 -9 8 -16 29 -16 47 0 19
-4 34 -10 34 -5 0 -10 9 -10 19 0 10 -7 22 -16 25 -11 4 -15 14 -11 32 2 14
-2 31 -10 40 -8 7 -15 27 -15 43 -1 17 -7 32 -15 35 -7 3 -13 14 -13 25 0 11
-4 23 -10 26 -5 3 -10 17 -10 31 0 14 -7 36 -16 49 -9 14 -14 31 -11 39 3 8
-1 20 -9 26 -8 7 -14 20 -14 30 0 10 -7 20 -15 24 -10 4 -15 16 -13 38 1 18
-3 33 -10 36 -6 2 -12 12 -12 22 0 9 -7 23 -15 30 -9 7 -14 19 -11 25 2 7 -2
25 -10 40 -8 15 -14 38 -14 51 0 14 -7 27 -15 30 -10 4 -13 13 -10 24 3 11 0
20 -10 24 -9 3 -15 18 -15 36 0 17 -6 38 -14 46 -8 8 -13 23 -11 33 2 11 -3
25 -11 32 -8 6 -14 20 -14 31 0 10 -7 21 -15 24 -9 4 -13 15 -11 30 3 13 -2
30 -10 38 -8 8 -14 26 -14 41 0 15 -7 33 -15 42 -8 8 -13 18 -10 23 3 4 -2 13
-10 20 -8 7 -15 24 -15 39 0 14 -7 35 -15 45 -8 11 -13 28 -9 38 3 11 -1 20
-10 24 -9 3 -16 15 -16 25 0 11 -5 28 -12 38 -10 16 -7 23 18 45 16 14 37 26
46 26 9 0 18 5 20 11 2 5 11 11 20 13 10 1 29 13 43 26 14 13 31 25 38 26 8 1
26 14 42 28 16 15 33 25 38 23 5 -1 37 26 71 60 33 35 66 63 73 63 17 0 53 36
53 53 0 7 34 46 75 86 41 41 75 81 75 88 0 8 11 24 25 37 14 13 25 29 25 36 0
7 12 23 26 36 14 13 23 28 19 33 -3 5 2 16 10 24 8 9 15 22 15 30 0 8 7 20 15
27 8 7 13 16 10 20 -3 4 2 13 10 20 8 7 15 20 15 30 0 10 7 23 15 30 8 7 15
21 15 31 0 11 5 19 10 19 6 0 10 8 10 19 0 10 7 24 15 31 8 7 13 16 10 20 -3
4 2 13 10 20 8 7 15 20 15 30 0 10 7 23 16 31 8 7 13 21 11 30 -3 10 1 26 9
36 7 10 14 30 14 44 0 15 7 32 15 39 9 7 13 23 11 37 -3 15 1 26 10 30 9 3 14
21 14 53 0 33 5 50 15 53 9 4 13 17 11 42 -2 21 2 41 10 50 9 8 14 35 14 68 0
36 4 57 13 60 10 4 13 24 12 71 -2 45 2 70 11 77 10 8 14 40 14 113 0 68 4
106 13 115 9 9 12 85 12 311 0 231 -3 301 -12 305 -9 3 -13 32 -13 99 0 62 -4
96 -11 98 -7 2 -13 31 -14 71 -1 37 -7 73 -13 79 -7 7 -12 31 -12 54 0 24 -5
44 -12 46 -7 3 -12 24 -12 51 0 29 -5 48 -13 51 -7 3 -13 18 -13 34 0 16 -6
35 -14 41 -7 6 -12 22 -11 36 2 13 -3 29 -11 36 -8 6 -14 19 -14 29 0 10 -6
20 -14 23 -9 4 -12 17 -10 37 2 20 -1 33 -11 36 -8 4 -15 15 -15 25 0 11 -6
22 -14 25 -8 3 -13 11 -10 19 3 7 -2 19 -10 28 -9 9 -16 22 -16 30 0 8 -6 20
-14 27 -8 6 -12 18 -9 26 3 7 -2 17 -11 20 -9 3 -16 14 -16 23 0 10 -11 28
-25 41 -14 13 -25 30 -25 37 0 8 -7 21 -15 30 -8 8 -13 18 -10 23 3 4 -13 24
-35 44 -22 20 -40 44 -40 54 0 9 -16 30 -35 46 -19 16 -35 36 -35 44 0 18
-230 252 -247 252 -7 0 -31 18 -53 40 -23 22 -45 38 -49 36 -4 -3 -25 13 -46
34 -22 22 -47 40 -56 40 -9 0 -22 7 -29 15 -7 9 -18 14 -24 12 -6 -2 -21 9
-34 25 -13 15 -28 26 -32 23 -5 -3 -15 2 -23 10 -9 8 -22 15 -30 15 -8 0 -20
7 -27 15 -7 8 -16 13 -20 10 -5 -3 -15 2 -23 10 -9 8 -22 15 -30 15 -8 0 -20
7 -27 15 -7 8 -16 13 -20 10 -5 -3 -15 2 -23 10 -9 8 -22 15 -30 15 -8 0 -20
6 -26 14 -6 7 -22 12 -36 11 -13 -2 -29 3 -36 11 -6 8 -24 14 -39 14 -15 0
-33 6 -39 13 -6 8 -27 13 -50 12 -26 -1 -42 3 -45 12 -3 8 -22 13 -49 13 -25
0 -49 6 -55 13 -7 8 -32 12 -71 11 -41 -1 -64 3 -72 12 -8 10 -37 14 -103 14
-56 1 -97 5 -107 13 -11 8 -65 12 -177 11 -127 0 -162 3 -162 13 0 11 -229 13
-1270 13 l-1270 0 0 -310z m2393 -321 c11 -11 44 -14 152 -14 93 1 139 -3 141
-10 3 -7 33 -11 81 -11 51 1 82 -4 96 -13 12 -9 46 -15 84 -15 39 -1 67 -6 71
-13 5 -7 24 -11 45 -10 24 2 41 -2 45 -10 4 -7 21 -14 37 -15 17 -1 33 -6 36
-11 4 -5 21 -11 39 -13 18 -2 38 -8 45 -14 7 -5 24 -11 40 -12 15 -2 30 -8 32
-15 3 -7 14 -13 25 -13 11 0 29 -11 40 -25 10 -13 22 -24 26 -23 27 5 132 -69
132 -94 0 -5 4 -7 9 -4 5 3 11 -1 15 -9 3 -8 12 -15 20 -15 8 0 38 -22 65 -49
37 -37 49 -55 44 -68 -3 -10 -3 -15 1 -11 9 8 46 -27 46 -44 0 -6 3 -8 7 -5 8
9 54 -53 47 -64 -3 -5 2 -9 11 -9 9 0 14 -4 10 -9 -3 -5 8 -19 25 -31 17 -12
28 -25 25 -29 -2 -5 2 -17 10 -27 8 -10 15 -26 15 -35 0 -9 7 -19 15 -22 8 -4
12 -15 10 -27 -2 -13 1 -20 11 -20 8 0 14 -10 14 -25 0 -16 6 -25 16 -25 8 0
12 -5 9 -10 -4 -6 3 -26 15 -45 12 -19 18 -35 13 -35 -4 0 -2 -4 5 -8 7 -5 14
-22 15 -38 1 -16 8 -35 15 -42 6 -7 12 -19 12 -27 0 -7 6 -15 13 -18 9 -3 13
-20 11 -50 -2 -32 2 -47 12 -51 10 -4 14 -18 12 -47 -1 -27 3 -45 12 -53 10
-7 15 -28 14 -56 0 -25 5 -55 12 -67 8 -13 13 -48 11 -91 -1 -50 3 -73 13 -84
21 -20 21 -565 0 -578 -9 -6 -13 -33 -12 -96 0 -57 -4 -92 -13 -100 -7 -8 -11
-35 -10 -71 2 -39 -2 -63 -12 -74 -8 -10 -15 -32 -15 -50 0 -19 -7 -44 -15
-57 -8 -13 -12 -30 -9 -38 3 -8 -2 -22 -12 -32 -9 -9 -16 -27 -14 -40 2 -12
-4 -29 -13 -38 -8 -9 -13 -24 -10 -34 3 -10 -1 -25 -10 -33 -8 -9 -15 -22 -15
-30 0 -8 -7 -20 -15 -27 -8 -7 -13 -16 -10 -20 3 -4 -2 -13 -10 -20 -8 -7 -15
-25 -15 -41 0 -17 -10 -38 -25 -53 -14 -14 -25 -32 -25 -41 0 -9 -6 -18 -14
-21 -8 -3 -13 -13 -11 -22 1 -9 -11 -30 -27 -45 -17 -16 -27 -35 -24 -43 3 -8
0 -14 -7 -14 -13 0 -40 -36 -43 -60 -2 -8 -8 -16 -14 -18 -5 -2 -8 -8 -4 -13
3 -5 1 -8 -4 -7 -5 2 -39 -27 -75 -64 -37 -38 -69 -68 -71 -68 -23 0 -36 17
-36 46 0 23 -5 34 -14 34 -10 0 -13 8 -10 26 3 16 -2 34 -12 45 -9 10 -13 22
-10 27 3 5 -3 17 -13 26 -13 11 -18 26 -15 42 3 16 -1 27 -11 31 -10 3 -15 15
-13 32 3 29 -9 54 -21 46 -5 -2 -7 6 -6 20 2 14 -3 26 -12 29 -10 4 -14 16
-11 35 3 20 -1 32 -13 40 -11 6 -16 19 -14 33 3 12 -2 29 -9 37 -8 9 -16 25
-18 36 -2 11 -8 19 -14 18 -5 -1 -9 13 -8 30 0 17 -6 38 -13 46 -8 8 -13 25
-10 38 2 14 -1 27 -10 32 -8 4 -15 15 -17 23 -1 9 -6 22 -12 29 -6 8 -11 27
-12 43 -1 17 -7 33 -14 37 -17 11 -18 37 -2 43 8 3 138 6 289 6 l275 1 0 307
0 307 -983 0 c-540 0 -987 -3 -993 -7 -7 -5 -10 -104 -10 -305 l1 -298 307 -3
307 -2 20 -26 c11 -14 17 -32 14 -41 -3 -8 0 -19 7 -23 7 -4 13 -18 14 -31 1
-14 7 -23 15 -21 7 1 10 -2 7 -7 -4 -5 -2 -12 3 -15 5 -3 7 -14 4 -25 -2 -10
2 -25 11 -33 9 -10 13 -26 10 -42 -3 -18 1 -28 11 -32 8 -4 15 -15 15 -25 0
-11 6 -22 14 -25 9 -4 13 -17 12 -39 -2 -21 2 -36 10 -39 8 -3 14 -13 14 -21
0 -9 7 -23 15 -31 8 -9 13 -26 11 -40 -3 -16 1 -27 13 -34 13 -7 17 -18 15
-40 -3 -21 1 -33 12 -37 9 -3 13 -12 9 -21 -3 -8 3 -20 13 -28 13 -9 18 -21
15 -39 -4 -16 0 -27 10 -31 10 -4 14 -15 12 -35 -3 -21 1 -33 14 -41 11 -6 17
-18 13 -26 -3 -8 2 -19 11 -23 11 -6 15 -19 12 -38 -2 -19 2 -31 11 -35 8 -3
14 -17 14 -30 0 -14 13 -49 28 -78 15 -29 26 -61 24 -71 -2 -9 3 -20 11 -23
10 -3 14 -14 11 -29 -2 -13 3 -30 11 -38 28 -28 9 -42 -50 -39 -40 3 -56 0
-60 -10 -4 -10 -27 -13 -86 -13 -55 1 -83 -3 -87 -12 -5 -9 -48 -13 -154 -14
-101 0 -148 -5 -151 -12 -5 -16 -865 -17 -870 -2 -2 5 -3 866 -2 1913 0 1396
4 1905 12 1910 6 4 211 7 456 6 373 -1 448 -3 460 -15z"/>
<path d="M2121 12246 c-12 -15 -30 -93 -23 -100 3 -3 -7 -23 -22 -44 -23 -34
-27 -49 -27 -118 0 -43 -5 -84 -11 -91 -6 -7 -8 -13 -5 -13 3 0 -4 -10 -17
-23 -21 -21 -23 -32 -25 -147 -1 -69 -6 -127 -12 -128 -5 -2 -7 -8 -4 -12 3
-5 -3 -15 -14 -22 -17 -12 -20 -30 -24 -129 -4 -94 -9 -122 -26 -150 -14 -23
-21 -51 -21 -86 0 -28 -5 -55 -10 -58 -6 -4 -8 -10 -6 -14 3 -4 -5 -34 -16
-66 -18 -52 -21 -91 -25 -280 -4 -241 -7 -265 -27 -265 -8 0 -18 -15 -22 -32
-11 -45 -12 -1023 -1 -1074 5 -28 15 -44 26 -47 17 -4 19 -23 24 -243 4 -183
8 -249 21 -281 19 -52 26 -82 35 -163 3 -36 15 -81 25 -100 16 -32 25 -104 26
-217 0 -29 7 -50 24 -70 23 -27 25 -39 27 -134 1 -105 7 -127 40 -162 14 -15
18 -37 18 -105 1 -72 4 -91 22 -116 15 -19 24 -53 30 -103 5 -46 15 -84 28
-101 11 -16 21 -41 23 -58 2 -16 11 -36 21 -45 9 -9 17 -21 17 -28 0 -6 5 -11
11 -11 6 0 10 -12 9 -27 -4 -63 1 -85 28 -111 25 -25 28 -34 28 -99 0 -64 3
-76 26 -100 20 -21 26 -38 25 -68 -1 -41 11 -72 39 -99 9 -9 17 -34 19 -57 2
-25 11 -49 26 -65 12 -13 19 -24 14 -24 -5 0 -4 -5 3 -12 7 -7 12 -19 12 -28
0 -9 11 -27 25 -40 15 -14 25 -35 25 -51 0 -36 9 -59 24 -59 19 0 35 -41 33
-85 -2 -31 4 -45 23 -64 26 -26 27 -27 29 -66 0 -14 11 -35 23 -47 13 -13 22
-26 21 -30 -2 -5 2 -8 7 -8 6 0 10 -13 10 -28 0 -18 9 -37 25 -50 14 -13 23
-27 20 -32 -3 -6 -1 -10 4 -10 6 0 11 -8 11 -18 0 -11 9 -27 20 -37 11 -10 20
-25 20 -34 0 -9 13 -26 29 -39 23 -18 28 -30 28 -61 0 -28 7 -48 26 -71 15
-17 27 -37 28 -43 2 -33 10 -50 39 -87 17 -22 29 -40 25 -40 -3 0 5 -11 19
-24 15 -13 26 -28 26 -33 0 -5 10 -20 22 -33 21 -22 28 -37 30 -67 1 -6 12
-17 25 -24 24 -13 39 -49 30 -72 -3 -7 8 -22 24 -33 18 -12 31 -31 35 -51 3
-18 10 -33 14 -33 4 0 20 -19 35 -42 16 -24 37 -49 47 -56 10 -7 18 -20 18
-28 0 -8 4 -14 9 -14 17 0 41 -31 41 -54 0 -12 11 -33 25 -46 14 -13 25 -27
25 -32 0 -4 13 -20 28 -35 16 -16 29 -39 30 -52 0 -14 13 -36 27 -50 80 -81
135 -142 135 -150 0 -6 8 -16 18 -23 10 -7 24 -27 31 -45 7 -18 20 -38 29 -45
12 -10 301 -14 1441 -18 1246 -4 1428 -3 1444 10 27 23 21 78 -13 129 -17 24
-30 48 -30 53 0 6 -9 17 -20 26 -11 10 -22 27 -25 40 -8 46 -18 67 -36 80 -11
7 -19 19 -19 25 0 7 -13 28 -30 47 -16 19 -29 40 -30 45 0 6 -14 23 -31 39
-22 22 -29 35 -25 52 6 22 -10 48 -35 56 -6 2 -13 21 -16 43 -4 43 -18 65 -39
65 -8 0 -15 8 -16 18 -4 50 -17 82 -32 82 -7 0 -21 20 -30 45 -10 25 -21 45
-26 45 -5 0 -12 10 -16 23 -9 29 -40 68 -48 60 -6 -6 -7 0 -11 48 -1 14 -14
37 -28 52 -15 14 -27 37 -27 50 0 13 -13 38 -30 55 -16 18 -30 42 -30 55 0 13
-10 32 -22 44 -51 45 -73 78 -77 115 -1 3 -12 19 -25 35 -14 16 -28 41 -31 55
-4 14 -16 36 -26 47 -11 12 -21 30 -22 41 -1 11 -5 20 -9 20 -4 0 -8 6 -8 14
0 7 -8 16 -19 19 -12 3 -20 17 -23 44 -3 23 -16 51 -32 68 -14 15 -26 33 -26
40 0 7 -9 20 -20 30 -11 10 -18 20 -16 23 5 5 -7 21 -48 62 -21 22 -27 36 -24
55 4 20 -1 30 -23 46 -20 14 -29 29 -29 49 0 35 -9 60 -22 60 -18 0 -38 28
-38 54 0 14 -10 36 -22 49 -25 25 -49 63 -73 115 -9 18 -25 42 -38 55 -12 12
-22 24 -22 27 -5 46 -18 79 -36 83 -12 3 -18 10 -14 16 3 6 1 11 -4 11 -6 0
-11 12 -11 28 -1 29 -23 66 -33 55 -4 -3 -8 -1 -8 5 -2 19 -4 25 -24 65 -10
20 -22 37 -26 37 -3 0 -12 14 -19 30 -7 17 -15 28 -18 25 -7 -7 -31 27 -32 46
0 9 -7 22 -16 29 -8 8 -22 29 -30 48 -8 20 -23 42 -34 49 -11 8 -20 25 -20 38
0 28 -20 75 -31 75 -8 0 -24 40 -21 53 1 4 -3 7 -10 7 -6 0 -9 3 -5 6 3 3 -7
17 -24 31 -16 14 -29 33 -29 43 0 11 -8 27 -18 37 -10 10 -24 32 -31 50 -7 18
-22 35 -32 38 -14 5 -19 16 -19 39 0 34 -31 81 -45 68 -5 -4 -5 -2 -1 5 3 6 1
15 -4 18 -6 4 -10 17 -9 28 2 27 -10 59 -21 52 -12 -7 -40 41 -40 69 0 15 -7
27 -18 30 -9 3 -23 19 -30 36 -8 17 -21 37 -29 45 -8 9 -16 21 -18 28 -10 40
-19 57 -30 57 -14 0 -35 50 -35 81 0 10 -10 25 -22 34 -23 16 -24 18 -27 55 0
12 -12 31 -25 43 -12 12 -29 39 -35 60 -7 20 -16 37 -20 37 -5 0 -21 20 -37
45 -15 25 -32 45 -37 45 -4 0 -5 5 -2 10 3 6 1 10 -6 10 -6 0 -9 8 -6 19 3 12
-4 28 -19 42 -13 12 -24 27 -24 33 0 6 -13 22 -30 36 -24 20 -30 33 -30 62 0
21 -4 38 -10 38 -5 0 -10 7 -10 15 0 8 -5 14 -12 12 -7 -1 -13 3 -13 8 -4 40
-19 75 -34 80 -10 3 -23 23 -29 44 -7 21 -21 46 -32 56 -11 10 -17 22 -14 26
3 5 0 9 -6 9 -6 0 -8 5 -5 10 3 6 0 10 -7 10 -19 1 -44 41 -44 70 1 26 -15 50
-32 50 -12 0 -22 24 -22 54 0 13 -13 37 -30 54 -17 18 -30 43 -30 56 0 14 -8
31 -19 38 -17 12 -30 32 -76 118 -11 20 -30 47 -42 60 -13 13 -23 34 -23 47 0
13 -9 32 -19 42 -11 11 -17 22 -13 25 3 3 0 6 -6 6 -6 0 -13 13 -17 29 -3 16
-15 37 -25 46 -11 10 -17 22 -14 26 3 5 0 9 -5 9 -6 0 -11 6 -11 14 0 7 -9 25
-20 38 -10 14 -16 28 -13 32 3 3 2 6 -3 6 -5 0 -18 15 -28 34 -10 19 -25 37
-33 40 -8 3 -11 10 -8 16 3 5 1 10 -5 10 -6 0 -8 5 -5 10 3 6 0 10 -8 10 -15
0 -26 18 -33 59 -3 13 -6 28 -7 34 -1 6 -11 20 -23 31 -11 12 -24 34 -28 50
-4 16 -18 43 -32 59 -14 16 -23 35 -21 41 2 6 -9 22 -25 36 -16 14 -30 38 -32
53 -1 15 -16 41 -31 57 -16 17 -25 30 -21 30 5 0 -6 12 -23 27 -24 22 -31 35
-31 65 0 21 -4 38 -8 38 -19 0 -53 43 -49 62 3 12 -5 30 -24 51 -16 17 -29 42
-29 54 0 12 -16 39 -35 59 -19 20 -33 40 -29 45 3 5 1 9 -3 9 -11 0 -47 60
-40 66 3 3 -8 18 -24 33 -18 17 -29 38 -29 55 0 14 -10 36 -22 49 -13 12 -22
25 -21 30 2 4 -2 7 -7 7 -6 0 -10 7 -10 16 0 8 -11 30 -24 47 -14 18 -27 44
-31 59 -4 14 -14 34 -24 45 -18 19 -35 53 -33 66 1 4 -5 7 -13 7 -15 0 -48 53
-39 63 3 3 -4 8 -15 12 -19 6 -25 19 -24 53 1 6 -3 12 -9 12 -5 0 -7 4 -4 9 3
4 -5 18 -18 30 -13 13 -27 38 -30 56 -4 18 -18 41 -31 51 -14 11 -25 29 -25
42 0 25 -33 75 -43 66 -3 -3 -9 11 -13 31 -3 20 -17 48 -30 62 -13 14 -24 31
-24 38 0 6 -11 18 -25 25 -14 7 -25 22 -25 32 0 10 -6 19 -12 20 -46 5 -69 4
-77 -6z"/>
<path d="M16480 9392 c-19 -15 -38 -32 -42 -37 -3 -6 -18 -23 -32 -38 -14 -15
-26 -39 -26 -53 0 -26 -20 -54 -39 -54 -6 0 -11 -10 -12 -22 -1 -44 -8 -61
-33 -87 -14 -15 -26 -32 -26 -37 0 -6 -11 -20 -25 -32 -14 -12 -26 -29 -26
-37 -1 -8 -2 -19 -3 -25 0 -5 -11 -17 -23 -25 -14 -10 -23 -26 -23 -43 0 -31
-27 -75 -40 -67 -11 7 -25 -41 -21 -67 1 -9 -9 -24 -23 -33 -14 -9 -28 -31
-31 -48 -9 -43 -33 -79 -47 -71 -6 4 -8 3 -4 -4 3 -6 -1 -18 -10 -26 -8 -9
-13 -16 -10 -16 3 0 -3 -9 -14 -20 -11 -11 -20 -27 -20 -36 0 -8 -4 -12 -10
-9 -6 3 -7 -1 -4 -9 3 -9 1 -16 -5 -16 -6 0 -10 -6 -8 -12 1 -7 -4 -12 -11
-10 -8 1 -11 -2 -7 -8 3 -5 1 -10 -5 -10 -6 0 -9 -4 -5 -9 3 -5 -6 -22 -20
-37 -14 -15 -30 -44 -35 -65 -6 -22 -14 -39 -19 -39 -9 0 -33 -46 -38 -74 -2
-10 -14 -32 -28 -48 -14 -16 -25 -37 -25 -45 0 -9 -12 -28 -27 -43 -16 -15
-29 -33 -31 -41 -2 -8 -12 -23 -22 -34 -11 -12 -21 -30 -23 -40 -3 -23 -26
-65 -27 -50 0 17 -33 -37 -35 -59 -1 -11 -3 -26 -4 -32 0 -6 -12 -17 -26 -24
-13 -7 -24 -16 -23 -19 4 -34 -6 -66 -26 -84 -14 -13 -28 -35 -31 -50 -4 -15
-11 -27 -17 -27 -5 0 -7 -4 -4 -8 3 -5 -4 -16 -15 -25 -10 -9 -19 -23 -19 -31
0 -7 -11 -21 -25 -30 -17 -11 -25 -26 -25 -46 0 -20 -9 -38 -28 -55 -19 -17
-27 -33 -26 -52 1 -20 -8 -36 -30 -56 -17 -16 -32 -39 -33 -53 -1 -13 -9 -31
-17 -40 -9 -9 -21 -25 -27 -37 -7 -12 -18 -29 -26 -37 -19 -21 -87 -133 -91
-150 -2 -8 -12 -24 -23 -36 -10 -11 -19 -28 -19 -37 0 -9 -4 -18 -10 -22 -5
-3 -7 -11 -4 -18 2 -7 -7 -24 -20 -36 -14 -13 -23 -28 -20 -32 3 -5 0 -9 -6
-9 -6 0 -9 -4 -6 -9 3 -4 -5 -18 -19 -31 -13 -12 -27 -35 -30 -50 -3 -15 -14
-36 -23 -46 -50 -56 -82 -105 -82 -124 0 -11 -13 -34 -30 -52 -16 -17 -30 -40
-30 -50 0 -28 -18 -58 -35 -58 -15 0 -19 -16 -15 -54 2 -20 -38 -68 -51 -60
-5 3 -6 -1 -4 -9 3 -7 -8 -31 -25 -52 -16 -21 -30 -46 -30 -56 0 -9 -11 -26
-25 -37 -15 -12 -25 -31 -27 -51 -1 -20 -13 -41 -30 -56 -15 -14 -28 -28 -29
-33 0 -4 -2 -17 -3 -29 -2 -13 -15 -34 -29 -47 -15 -14 -27 -34 -27 -45 0 -11
-11 -33 -25 -49 -13 -16 -22 -32 -18 -36 3 -3 1 -6 -5 -6 -7 0 -12 -7 -12 -15
0 -9 -6 -18 -14 -21 -8 -3 -22 -23 -30 -45 -10 -25 -21 -37 -28 -33 -7 4 -8 3
-4 -4 4 -7 2 -12 -3 -12 -6 0 -11 -9 -11 -20 0 -11 -5 -20 -12 -20 -6 0 -9 -3
-5 -6 3 -3 -7 -24 -23 -46 -17 -22 -27 -44 -24 -49 6 -10 -12 -45 -37 -72 -10
-11 -16 -23 -14 -27 3 -5 -7 -21 -23 -38 -15 -16 -29 -38 -30 -48 -2 -11 -9
-22 -15 -26 -7 -4 -8 -8 -4 -8 4 0 3 -6 -3 -12 -42 -50 -80 -110 -84 -132 -6
-34 -14 -46 -31 -46 -14 0 -25 -23 -29 -65 -1 -13 -14 -35 -29 -49 -18 -16
-24 -30 -20 -45 3 -12 1 -21 -6 -21 -6 0 -10 -3 -9 -7 3 -11 -34 -53 -42 -48
-3 2 -7 -6 -7 -17 -1 -11 -11 -26 -21 -34 -11 -7 -23 -30 -27 -50 -4 -23 -13
-38 -25 -41 -18 -5 -29 -30 -30 -68 0 -11 -14 -33 -30 -49 -17 -16 -30 -38
-30 -48 0 -10 -9 -26 -20 -36 -11 -9 -25 -34 -31 -55 -5 -21 -19 -47 -30 -58
-10 -10 -19 -26 -19 -34 0 -8 -5 -15 -12 -15 -6 0 -9 -3 -6 -6 3 -3 -4 -16
-16 -28 -27 -30 -76 -110 -76 -125 0 -6 -5 -11 -11 -11 -5 0 -8 -4 -5 -8 3 -5
-5 -15 -18 -21 -16 -9 -22 -19 -19 -35 3 -16 -5 -35 -26 -58 -17 -20 -31 -45
-31 -56 0 -30 -10 -52 -24 -52 -7 0 -18 -16 -25 -35 -7 -19 -17 -35 -22 -35
-6 0 -8 -4 -5 -9 3 -5 -1 -14 -9 -21 -8 -7 -15 -17 -15 -23 0 -5 -8 -16 -17
-24 -10 -8 -12 -11 -4 -7 9 5 12 3 7 -4 -4 -7 -14 -12 -21 -12 -14 0 -22 -20
-29 -65 -1 -10 -13 -27 -26 -37 -13 -11 -24 -31 -25 -46 -1 -24 -24 -79 -25
-59 -1 23 -29 -25 -32 -54 -2 -19 -13 -45 -26 -59 -12 -14 -35 -40 -52 -58
-16 -18 -31 -44 -33 -58 -2 -14 -10 -30 -18 -35 -8 -5 -10 -9 -5 -9 5 0 0 -8
-10 -17 -10 -10 -20 -25 -22 -33 -2 -8 -14 -31 -27 -50 -12 -19 -26 -46 -30
-60 -4 -14 -16 -35 -27 -46 -10 -12 -21 -35 -23 -52 -4 -30 -41 -92 -56 -92
-4 0 -9 -10 -12 -22 -4 -12 -9 -19 -13 -15 -6 6 -34 -41 -38 -63 -1 -3 -11
-16 -23 -29 -12 -13 -20 -28 -17 -32 3 -5 -7 -21 -21 -36 -14 -16 -30 -45 -36
-65 -5 -21 -14 -38 -19 -38 -13 0 -27 -29 -33 -68 -3 -19 -12 -41 -20 -50 -24
-27 -87 -123 -87 -133 0 -5 -5 -9 -12 -9 -6 0 -9 -3 -5 -6 3 -4 -2 -14 -13
-23 -10 -9 -20 -27 -22 -41 -2 -14 -15 -36 -30 -49 -20 -17 -28 -33 -28 -56 0
-18 -7 -38 -15 -45 -8 -7 -15 -9 -15 -4 -1 5 -8 -3 -16 -19 -8 -15 -12 -32 -9
-38 4 -5 1 -17 -7 -26 -7 -9 -12 -18 -10 -20 1 -1 0 -3 -3 -3 -12 1 -32 -27
-39 -54 -4 -15 -10 -26 -13 -22 -7 7 -33 -40 -33 -60 0 -8 -4 -14 -10 -14 -5
0 -10 -5 -10 -11 0 -7 -7 -17 -16 -24 -14 -10 -13 -13 12 -30 16 -10 34 -26
41 -34 10 -14 13 -14 31 2 10 10 37 20 58 23 59 7 114 24 114 34 0 5 17 12 38
15 71 11 112 26 122 44 8 16 22 19 72 19 35 1 71 1 81 1 9 1 27 11 39 23 17
17 39 24 92 29 50 5 73 11 83 25 7 10 13 14 13 8 0 -5 4 -3 8 3 4 7 26 15 47
18 68 10 86 15 114 36 15 11 39 21 54 23 15 1 38 13 52 26 14 13 28 20 32 17
3 -4 12 -2 20 4 7 6 13 8 13 3 0 -4 15 6 33 24 29 28 38 31 84 29 28 -1 50 -1
48 1 -1 2 8 14 21 27 17 17 39 25 79 29 45 4 61 10 76 31 15 18 30 25 54 25
21 0 41 8 53 20 10 10 33 27 52 36 56 25 92 47 131 77 23 17 48 27 70 27 23 0
49 10 77 31 27 20 50 29 63 26 13 -4 25 2 35 19 9 14 30 26 50 30 33 6 81 37
136 89 15 14 35 25 45 25 11 0 30 10 43 22 14 13 27 23 30 23 21 2 60 22 83
41 16 13 33 21 38 18 6 -3 19 6 30 19 10 14 34 30 53 37 18 6 43 22 54 35 12
14 27 25 33 25 6 0 26 12 45 26 19 15 34 23 34 19 0 -4 11 4 25 19 14 15 25
24 25 21 0 -3 10 3 22 15 12 11 25 20 29 20 4 0 11 9 14 20 4 14 15 20 35 20
18 0 39 11 58 30 17 16 38 30 46 30 9 0 16 6 16 13 0 8 12 20 27 28 15 8 41
26 57 42 17 15 41 37 54 48 13 12 26 18 29 15 3 -3 20 9 37 27 17 18 46 39 64
46 17 7 29 17 27 21 -3 5 4 11 15 15 11 3 47 33 80 66 33 32 67 59 75 59 9 0
14 4 11 8 -3 5 4 15 15 23 11 8 37 30 57 50 20 20 42 38 47 40 6 2 25 22 44
44 19 22 38 40 43 40 18 0 108 80 260 230 89 88 165 159 170 158 4 -2 8 3 8
10 0 17 67 77 75 68 4 -3 6 -1 5 4 -5 23 1 34 21 40 11 4 18 9 15 12 -6 7 53
82 113 143 24 25 52 58 63 75 10 16 18 26 18 21 0 -6 11 5 24 23 14 18 32 40
40 50 70 75 86 94 86 101 0 5 11 17 25 28 14 11 25 24 25 30 0 10 34 53 78 99
13 13 25 37 27 53 3 20 24 49 67 92 35 34 63 65 63 68 0 3 3 4 7 3 3 -1 13 12
21 30 9 18 27 43 41 56 13 13 22 29 20 35 -3 7 9 27 26 44 25 26 38 63 28 75
-6 6 27 35 35 30 4 -2 7 1 7 6 0 6 16 28 35 48 19 20 35 43 35 50 0 7 9 17 20
23 10 6 24 27 29 48 6 20 19 42 29 49 11 6 22 28 26 52 4 29 13 44 34 56 23
14 27 23 24 45 -3 22 4 36 29 62 19 18 35 39 37 46 1 7 11 23 22 35 11 11 20
26 20 33 0 7 11 26 25 42 14 17 26 43 27 58 1 16 15 42 30 57 15 16 28 37 28
48 0 10 5 19 12 19 6 0 8 3 5 7 -4 3 3 15 16 27 15 15 22 32 22 59 -1 30 5 43
24 58 24 19 28 29 33 78 1 13 13 31 25 41 13 10 23 27 23 37 0 11 11 33 25 49
23 27 30 49 26 82 -1 6 3 12 9 12 6 0 9 4 6 8 -3 5 8 18 23 31 20 17 26 29 23
50 -3 19 4 37 23 59 21 25 27 43 29 89 1 35 6 58 14 61 19 6 42 57 42 92 0 21
-9 40 -30 60 -21 20 -30 39 -30 60 0 31 -22 65 -34 53 -3 -4 -7 -1 -7 5 -1 7
-3 17 -4 22 -1 6 -3 17 -4 25 0 9 -13 28 -27 42 -14 14 -27 35 -30 46 -4 23
-56 100 -86 130 -10 10 -21 30 -24 45 -4 15 -18 41 -31 58 -12 17 -23 43 -23
57 0 14 -8 32 -18 39 -16 11 -36 47 -32 56 1 2 -10 17 -25 32 -15 15 -26 30
-24 32 5 6 -33 78 -42 78 -5 0 -9 4 -9 9 0 15 -81 130 -102 145 -14 10 -19 23
-17 43 3 21 -4 37 -24 57 -15 15 -28 36 -28 46 -1 11 -2 25 -3 30 0 6 -14 21
-30 35 -20 17 -27 31 -23 45 4 14 -5 29 -28 52 -19 17 -32 35 -29 39 2 4 -7
21 -22 38 -14 17 -23 35 -19 41 3 5 2 10 -4 10 -6 0 -8 8 -4 18 3 9 3 14 -2
10 -13 -12 -55 40 -55 67 0 13 -12 36 -27 51 -14 15 -28 36 -29 48 -1 11 -3
24 -3 28 -1 4 -12 18 -26 32 -14 14 -25 34 -25 45 0 11 -14 36 -31 55 -18 21
-27 40 -23 47 4 7 3 9 -3 6 -15 -9 -48 34 -52 67 -2 17 -14 38 -27 49 -13 10
-24 24 -24 30 0 7 -11 25 -25 41 -14 16 -28 46 -31 67 -4 21 -12 40 -20 43 -7
3 -23 28 -35 55 -12 28 -26 51 -32 51 -6 0 -8 3 -4 6 3 3 2 11 -4 18 -61 73
-76 100 -69 131 1 6 -2 7 -5 3 -16 -16 -45 14 -51 52 -4 22 -9 40 -13 40 -3
-1 -22 -13 -41 -28z"/>
<path d="M12655 6512 c-76 -27 -148 -99 -166 -166 -13 -47 -5 -179 11 -184 5
-2 8 -8 4 -13 -7 -12 103 -122 115 -115 5 4 11 1 13 -5 2 -6 35 -14 74 -16 57
-5 79 -1 122 17 53 23 122 88 122 115 0 8 4 15 9 15 6 0 8 9 6 20 -2 11 0 22
6 25 13 8 11 122 -2 130 -6 4 -8 13 -5 21 3 8 1 14 -4 14 -6 0 -10 6 -10 14 0
22 -48 75 -94 104 -32 20 -56 26 -111 28 -38 2 -79 0 -90 -4z m142 -63 c40
-15 73 -48 94 -94 20 -43 26 -140 9 -150 -6 -4 -8 -11 -5 -16 3 -5 0 -16 -7
-25 -42 -51 -67 -74 -92 -84 -37 -14 -116 -12 -142 3 -39 22 -85 67 -80 76 4
5 1 11 -6 13 -16 6 -23 128 -9 170 13 41 69 100 102 109 38 11 105 10 136 -2z"/>
<path d="M13595 6495 c-62 -30 -97 -66 -120 -125 -19 -48 -28 -160 -14 -160 5
0 9 -8 9 -19 0 -117 189 -219 317 -170 15 6 29 10 31 9 3 -1 23 16 67 58 20
17 33 32 30 32 -3 0 3 12 12 27 14 21 18 48 18 118 0 70 -4 97 -18 118 -9 15
-15 27 -13 27 12 0 -52 57 -88 79 -59 37 -164 40 -231 6z m185 -50 c76 -39
110 -112 98 -209 -9 -69 -54 -137 -104 -155 -40 -15 -106 -14 -141 1 -30 14
-83 61 -83 75 0 4 -6 19 -13 33 -16 31 -15 103 2 155 15 43 66 100 97 108 41
10 116 6 144 -8z"/>
<path d="M12070 6481 c0 -23 5 -30 23 -33 22 -3 22 -4 22 -183 0 -179 0 -180
-22 -183 -18 -3 -23 -10 -23 -33 l0 -29 85 0 85 0 0 30 c0 25 -4 30 -25 30
-25 0 -25 1 -25 85 l0 85 75 0 75 0 0 30 0 30 -75 0 -75 0 0 70 0 71 88 -3 87
-3 3 -42 c3 -40 5 -43 33 -43 l29 0 0 75 0 75 -180 0 -180 0 0 -29z"/>
<path d="M13008 6503 c-2 -5 -4 -46 -4 -93 l1 -85 30 0 c30 0 30 0 30 60 l0
60 50 0 50 0 0 -180 c0 -179 0 -180 -22 -183 -18 -3 -23 -10 -23 -33 l0 -29
85 0 85 0 0 30 c0 25 -4 30 -25 30 l-25 0 0 185 0 185 50 0 50 0 0 -65 0 -65
30 0 30 0 0 95 0 95 -194 0 c-107 0 -196 -3 -198 -7z"/>
<path d="M4214 4222 c-10 -2 -29 -14 -41 -27 -13 -13 -31 -29 -40 -34 -17 -10
-17 -12 0 -25 9 -7 17 -19 17 -25 0 -7 5 -9 10 -6 6 3 10 2 10 -2 0 -11 129
-148 139 -148 9 0 179 -173 200 -203 8 -12 18 -19 22 -16 4 2 16 -6 26 -18 10
-13 35 -31 56 -40 21 -10 40 -25 43 -33 4 -8 15 -15 25 -15 10 0 19 -4 19 -8
0 -13 36 -53 42 -47 2 3 11 -6 18 -20 7 -13 21 -27 30 -30 9 -3 23 -17 30 -30
7 -14 19 -25 25 -25 6 0 24 -12 38 -27 53 -56 79 -75 113 -84 19 -6 34 -15 34
-20 0 -13 21 -33 39 -37 7 -2 28 -17 46 -35 17 -18 45 -41 60 -52 16 -11 33
-25 39 -30 27 -26 74 -54 80 -48 4 4 9 -3 12 -15 4 -12 15 -24 25 -27 10 -4
19 -11 19 -16 0 -6 5 -7 11 -4 6 4 20 -2 32 -13 12 -11 28 -22 36 -24 23 -5
50 -31 44 -41 -3 -6 -1 -7 6 -3 6 4 14 0 17 -8 3 -9 10 -14 14 -11 4 3 25 -9
45 -25 21 -17 41 -30 45 -30 3 0 21 -13 40 -30 18 -16 37 -27 41 -24 5 2 17
-4 28 -15 11 -11 36 -27 56 -35 19 -8 35 -20 35 -26 0 -14 56 -35 103 -39 5
-1 6 -5 3 -9 -3 -5 14 -19 37 -32 23 -13 48 -30 55 -37 7 -7 18 -14 23 -14 5
-1 13 -2 18 -3 4 0 23 -15 41 -33 21 -21 39 -30 53 -27 13 2 31 -6 48 -22 14
-14 38 -26 53 -28 15 -1 39 -15 54 -29 17 -16 39 -27 56 -27 18 0 39 -10 55
-27 29 -31 33 -33 59 -33 11 0 29 -9 42 -20 13 -11 35 -23 49 -26 14 -4 31
-12 36 -19 17 -20 52 -35 83 -35 21 0 38 -9 54 -27 17 -21 34 -29 68 -32 29
-2 55 -12 73 -27 16 -13 41 -24 55 -25 45 -1 63 -7 86 -27 11 -11 32 -22 46
-24 45 -9 54 -13 74 -30 11 -10 34 -21 53 -24 18 -3 33 -11 33 -17 0 -6 3 -7
7 -4 3 4 15 0 25 -10 10 -9 44 -20 75 -24 32 -4 62 -14 68 -22 18 -24 48 -34
115 -36 36 -2 68 -7 71 -13 3 -5 9 -9 13 -9 3 1 6 -2 7 -6 1 -17 36 -26 96
-25 40 0 63 -3 63 -10 0 -6 3 -8 7 -5 3 4 16 -2 28 -13 12 -12 45 -24 73 -29
28 -4 61 -15 74 -23 21 -14 64 -25 130 -33 15 -2 40 -13 56 -25 22 -17 43 -21
110 -21 67 0 87 -4 114 -23 49 -33 58 -35 170 -37 96 -1 148 -12 148 -30 0
-14 63 -21 214 -23 136 -2 156 -4 182 -23 36 -25 75 -32 192 -34 62 -1 95 -5
100 -14 13 -22 189 -28 802 -28 610 -1 800 6 800 28 0 9 26 13 88 14 140 2
198 11 223 34 18 17 38 21 108 24 109 5 111 5 105 14 -2 4 2 13 9 21 33 35 57
73 57 92 0 11 13 31 28 43 19 15 28 31 27 45 -2 26 13 63 23 54 10 -11 39 44
35 67 -3 17 4 29 26 46 17 13 31 31 31 41 0 9 14 35 31 58 17 23 28 42 24 42
-3 0 6 12 20 27 14 16 30 43 36 60 6 18 14 33 18 33 8 0 28 37 29 53 0 5 12
23 26 41 14 18 28 45 32 60 3 15 15 31 25 37 11 5 19 18 19 29 0 31 21 69 42
76 11 3 17 8 14 11 -7 7 22 63 33 63 5 0 12 12 15 26 4 14 18 37 31 50 13 13
26 37 29 54 2 17 17 43 33 58 18 18 28 36 27 55 -1 15 4 27 9 27 6 0 8 3 5 6
-3 3 5 16 18 29 15 15 24 36 24 54 0 21 6 32 19 36 11 3 22 14 25 23 3 9 17
30 31 46 22 26 30 45 26 68 0 4 13 17 29 30 21 15 30 30 30 50 0 15 5 28 11
28 5 0 7 5 4 10 -3 6 0 13 8 16 16 6 31 38 42 87 4 20 10 27 21 23 9 -3 12 -1
9 4 -3 6 -1 10 4 10 6 0 10 3 9 8 -4 16 14 72 26 79 8 5 21 23 30 41 9 18 21
30 26 27 6 -4 10 1 10 9 0 9 5 16 11 16 5 0 7 4 4 10 -3 5 -1 10 4 10 6 0 11
6 11 13 0 8 9 22 20 32 11 10 20 26 20 35 0 10 10 33 23 52 13 18 29 49 35 66
6 18 20 45 32 59 11 14 20 32 20 41 0 8 14 30 30 49 17 18 30 40 30 48 0 8 3
15 8 15 4 0 15 12 26 26 l18 26 -43 40 -43 40 -4291 2 c-2360 0 -4300 -1
-4311 -2z"/>
</g>
</svg>
